<?xml version="1.0" encoding="UTF-8"?>
<svg width="1200pt" height="1200pt" version="1.1" viewBox="0 0 1200 1200" xmlns="http://www.w3.org/2000/svg">
 <path d="m1014 174c-86.398 0-156 69.602-156 156 0 44.398 18 84 48 112.8l-104.4 212.4c-4.8008 0-10.801-1.1992-15.602-1.1992-22.801 0-44.398 4.8008-63.602 14.398l-160.8-128.4c13.199-22.801 20.398-49.199 20.398-78 0-86.398-69.602-156-156-156s-156 69.602-156 156c0 43.199 16.801 81.602 45.602 109.2l-92.398 146.4c-12-2.3984-24-4.8008-36-4.8008-86.398 0-156 69.602-156 156s69.602 156 156 156 156-69.602 156-156c0-38.398-14.398-74.398-37.199-102l96-152.4c8.3984 1.1992 16.801 2.3984 25.199 2.3984 22.801 0 43.199-4.8008 62.398-13.199l162 128.4c-13.199 22.801-20.398 49.199-20.398 76.801 0 86.398 69.602 156 156 156s156-69.602 156-156c0-46.801-20.398-87.602-52.801-116.4l103.2-208.8c7.1992 1.1992 14.398 1.1992 21.602 1.1992 86.398 0 156-69.602 156-156-0.003906-86.398-70.805-154.8-157.2-154.8z"/>
</svg>
