<?xml version="1.0"?>
<svg xmlns:rdf="http://www.w3.org/1999/02/22-rdf-syntax-ns#" xmlns="http://www.w3.org/2000/svg" xmlns:cc="http://creativecommons.org/ns#" xmlns:xlink="http://www.w3.org/1999/xlink" xmlns:dc="http://purl.org/dc/elements/1.1/" xmlns:svg="http://www.w3.org/2000/svg" id="svg2" viewBox="0 0 146.14 295.75" version="1.0">
  <defs id="defs4">
    <linearGradient id="linearGradient2515" y2="483.96" gradientUnits="userSpaceOnUse" y1="498.29" x2="486.39" x1="305.07">
      <stop id="stop2511" stop-color="#484537" offset="0"/>
      <stop id="stop2513" stop-color="#484537" stop-opacity="0" offset="1"/>
    </linearGradient>
    <linearGradient id="linearGradient3341" y2="529.61" gradientUnits="userSpaceOnUse" y1="325.56" x2="371.23" x1="371.74">
      <stop id="stop3337" stop-color="#008080" offset="0"/>
      <stop id="stop3339" stop-color="#008080" stop-opacity="0" offset="1"/>
    </linearGradient>
  </defs>
  <g id="layer1" transform="translate(-293.29 -336.17)">
    <rect id="rect2383" stroke-linejoin="round" stroke-opacity=".9702" ry="17.161" height="293.45" width="143.84" stroke="#000" y="337.32" x="294.44" stroke-width="2.3057" fill="#fff"/>
    <rect id="rect2385" stroke-linejoin="round" stroke-opacity=".9702" ry="14.272" height="118.46" width="116.3" stroke="#000" y="370.99" x="307.77" stroke-width="2.111" fill="url(#linearGradient3341)"/>
    <rect id="rect2387" stroke-linejoin="round" stroke-opacity=".9702" ry="7.8571" height="15.714" width="28.571" stroke="#000" y="539.79" x="353.71" stroke-width="2" fill="#c8beb7"/>
    <rect id="rect2389" stroke-linejoin="round" stroke-opacity=".9702" ry="7.8571" height="15.714" width="28.571" stroke="#000" y="540.51" x="393.71" stroke-width="2" fill="#c8beb7"/>
    <rect id="rect2391" stroke-linejoin="round" stroke-opacity=".9702" ry="7.8571" height="15.714" width="28.571" stroke="#000" y="540.51" x="312.29" stroke-width="2" fill="#c8beb7"/>
    <rect id="rect2393" stroke-linejoin="round" stroke-opacity=".9702" ry="7.8571" height="15.714" width="28.571" stroke="#000" y="560.43" x="355" stroke-width="2" fill="#c8beb7"/>
    <rect id="rect2395" stroke-linejoin="round" stroke-opacity=".9702" ry="7.8571" height="15.714" width="28.571" stroke="#000" y="561.15" x="395" stroke-width="2" fill="#c8beb7"/>
    <rect id="rect2397" stroke-linejoin="round" stroke-opacity=".9702" ry="7.8571" height="15.714" width="28.571" stroke="#000" y="561.15" x="313.57" stroke-width="2" fill="#c8beb7"/>
    <rect id="rect2399" stroke-linejoin="round" stroke-opacity=".9702" ry="7.8571" height="15.714" width="28.571" stroke="#000" y="580.15" x="354.43" stroke-width="2" fill="#c8beb7"/>
    <rect id="rect2401" stroke-linejoin="round" stroke-opacity=".9702" ry="7.8571" height="15.714" width="28.571" stroke="#000" y="580.86" x="394.43" stroke-width="2" fill="#c8beb7"/>
    <rect id="rect2403" stroke-linejoin="round" stroke-opacity=".9702" ry="7.8571" height="15.714" width="28.571" stroke="#000" y="580.86" x="313" stroke-width="2" fill="#c8beb7"/>
    <rect id="rect2405" stroke-linejoin="round" stroke-opacity=".9702" ry="7.8571" height="15.714" width="28.571" stroke="#000" y="600.43" x="354.43" stroke-width="2" fill="#c8beb7"/>
    <rect id="rect2407" stroke-linejoin="round" stroke-opacity=".9702" ry="7.8571" height="15.714" width="28.571" stroke="#000" y="601.15" x="394.43" stroke-width="2" fill="#c8beb7"/>
    <rect id="rect2409" stroke-linejoin="round" stroke-opacity=".9702" ry="7.8571" height="15.714" width="28.571" stroke="#000" y="601.15" x="313" stroke-width="2" fill="#c8beb7"/>
    <rect id="rect2411" stroke-linejoin="round" stroke-opacity=".9702" ry="5.2151" height="21.676" width="21.937" stroke="#000" y="343.84" x="403.34" stroke-width=".89947" fill="#fff"/>
    <rect id="rect2413" stroke-linejoin="round" stroke-opacity=".9702" ry="3.9219" height="16.301" width="17.027" stroke="#000" y="346.53" x="405.81" stroke-width=".6872" fill="#fff"/>
    <rect id="rect2415" stroke-linejoin="round" stroke-opacity=".9702" ry="7.5328" height="31.309" width="35.592" stroke="#000" y="496.3" x="350.97" stroke-width="1.3769" fill="#fff"/>
    <rect id="rect2417" stroke-linejoin="round" stroke-opacity=".9702" ry="5.6649" height="23.546" width="27.626" stroke="#000" y="500.18" x="354.97" stroke-width="1.052" fill="#c8beb7"/>
    <rect id="rect2419" stroke-linejoin="round" stroke-opacity=".9702" ry="4.205" height="32.325" width="35.355" stroke="#000" y="498.8" x="391.94" stroke-width="2" fill="#c8beb7"/>
    <path id="path2421" stroke="#000" stroke-width="1px" fill="none" d="m391.94 514.96h36.36"/>
    <rect id="rect2423" stroke-linejoin="round" stroke-opacity=".9702" ry="4.205" height="32.325" width="35.355" stroke="#000" y="497.73" x="310.41" stroke-width="2" fill="#c8beb7"/>
    <path id="path2425" stroke="#000" stroke-width="1px" fill="none" d="m310.41 513.89h36.36"/>
    <path id="path2427" stroke="#000" stroke-width="1px" fill="none" d="m300.29 365.21c-3.08-16.32 34.5-18.03 90.15-15.66v-11.87"/>
    <path id="path2429" stroke="#000" stroke-width="1.0005px" fill="none" d="m300.07 362.43l0.01 264.66"/>
    <path id="path2435" stroke="#000" stroke-width="1.0014px" fill="none" d="m433.18 342.22l0.01 282.08"/>
    <path id="text2443" d="m324.98 548.81h0.97v-3.34l-1.05 0.21v-0.54l1.04-0.21h0.6v3.88h0.96v0.5h-2.52v-0.5"/>
    <path id="text2447" d="m367.35 549.29h2.07v0.5h-2.78v-0.5c0.22-0.23 0.53-0.54 0.92-0.93s0.63-0.65 0.73-0.76c0.19-0.21 0.32-0.39 0.39-0.54 0.08-0.15 0.12-0.29 0.12-0.44 0-0.23-0.08-0.42-0.25-0.56-0.16-0.15-0.37-0.22-0.63-0.22-0.19 0-0.38 0.03-0.59 0.09-0.21 0.07-0.43 0.16-0.66 0.3v-0.6c0.24-0.1 0.46-0.17 0.67-0.22 0.2-0.05 0.39-0.07 0.57-0.07 0.45 0 0.81 0.11 1.08 0.34 0.27 0.22 0.4 0.53 0.4 0.91 0 0.18-0.03 0.35-0.1 0.51s-0.19 0.35-0.36 0.57c-0.05 0.05-0.21 0.22-0.47 0.49s-0.63 0.65-1.11 1.13"/>
    <path id="text2451" d="m408.03 548.44c0.28 0.06 0.51 0.19 0.66 0.38 0.16 0.19 0.24 0.43 0.24 0.71 0 0.43-0.14 0.77-0.44 1-0.3 0.24-0.72 0.36-1.27 0.36-0.18 0-0.37-0.02-0.57-0.06-0.19-0.03-0.39-0.09-0.6-0.16v-0.57c0.17 0.09 0.35 0.17 0.54 0.21 0.2 0.05 0.4 0.08 0.61 0.08 0.38 0 0.66-0.08 0.85-0.22 0.2-0.15 0.29-0.36 0.29-0.64 0-0.26-0.09-0.46-0.27-0.6-0.18-0.15-0.43-0.22-0.75-0.22h-0.51v-0.49h0.53c0.29 0 0.52-0.06 0.67-0.17 0.15-0.12 0.23-0.29 0.23-0.51s-0.08-0.39-0.24-0.51-0.38-0.18-0.68-0.18c-0.16 0-0.34 0.01-0.52 0.05-0.19 0.03-0.39 0.09-0.61 0.16v-0.52c0.22-0.07 0.43-0.11 0.63-0.15 0.19-0.03 0.38-0.04 0.55-0.04 0.45 0 0.81 0.1 1.07 0.31 0.26 0.2 0.39 0.47 0.39 0.82 0 0.24-0.07 0.45-0.21 0.62-0.14 0.16-0.33 0.28-0.59 0.34"/>
    <path id="text2455" d="m328.04 566.64l-1.49 2.34h1.49v-2.34m-0.15-0.51h0.74v2.85h0.62v0.49h-0.62v1.03h-0.59v-1.03h-1.97v-0.57l1.82-2.77"/>
    <path id="text2459" d="m367.86 565.11h2.32v0.5h-1.78v1.08c0.09-0.03 0.17-0.06 0.26-0.07 0.08-0.01 0.17-0.02 0.26-0.02 0.48 0 0.87 0.13 1.16 0.4 0.28 0.27 0.42 0.63 0.42 1.09 0 0.47-0.14 0.83-0.44 1.09-0.29 0.26-0.7 0.39-1.23 0.39-0.19 0-0.38-0.01-0.57-0.04s-0.38-0.08-0.59-0.14v-0.6c0.18 0.1 0.36 0.17 0.55 0.22 0.19 0.04 0.38 0.07 0.59 0.07 0.34 0 0.61-0.09 0.81-0.27 0.19-0.18 0.29-0.42 0.29-0.72 0-0.31-0.1-0.55-0.29-0.73-0.2-0.18-0.47-0.26-0.81-0.26-0.15 0-0.31 0.01-0.47 0.05-0.16 0.03-0.32 0.09-0.48 0.16v-2.2"/>
    <path id="text2463" d="m409.6 569.09c-0.27 0-0.48 0.09-0.64 0.27-0.15 0.18-0.23 0.43-0.23 0.75 0 0.31 0.08 0.56 0.23 0.74 0.16 0.18 0.37 0.28 0.64 0.28 0.26 0 0.47-0.1 0.63-0.28 0.15-0.18 0.23-0.43 0.23-0.74 0-0.32-0.08-0.57-0.23-0.75-0.16-0.18-0.37-0.27-0.63-0.27m1.17-1.86v0.54c-0.15-0.07-0.3-0.12-0.45-0.16s-0.3-0.06-0.45-0.06c-0.39 0-0.69 0.14-0.89 0.4-0.21 0.26-0.33 0.66-0.36 1.2 0.12-0.17 0.26-0.3 0.44-0.39 0.17-0.1 0.36-0.14 0.57-0.14 0.44 0 0.79 0.13 1.04 0.4 0.26 0.26 0.39 0.63 0.39 1.09 0 0.45-0.14 0.81-0.4 1.08-0.27 0.27-0.62 0.4-1.06 0.4-0.51 0-0.9-0.19-1.16-0.58-0.27-0.38-0.4-0.95-0.4-1.68 0-0.69 0.16-1.25 0.49-1.66s0.77-0.61 1.32-0.61c0.15 0 0.3 0.01 0.45 0.04s0.31 0.07 0.47 0.13"/>
    <path id="text2467" d="m325.28 586.83h2.81v0.26l-1.59 4.12h-0.62l1.5-3.88h-2.1v-0.5"/>
    <path id="text2471" d="m368.63 588.62c-0.28 0-0.5 0.08-0.66 0.23s-0.24 0.36-0.24 0.62c0 0.27 0.08 0.47 0.24 0.62s0.38 0.23 0.66 0.23 0.51-0.08 0.67-0.23 0.24-0.36 0.24-0.62-0.08-0.47-0.24-0.62-0.38-0.23-0.67-0.23m-0.59-0.25c-0.25-0.06-0.45-0.18-0.59-0.35-0.14-0.18-0.21-0.39-0.21-0.64 0-0.35 0.12-0.62 0.37-0.83 0.25-0.2 0.59-0.3 1.02-0.3 0.44 0 0.78 0.1 1.03 0.3 0.25 0.21 0.37 0.48 0.37 0.83 0 0.25-0.07 0.46-0.21 0.64-0.14 0.17-0.34 0.29-0.59 0.35 0.28 0.07 0.5 0.2 0.66 0.39 0.16 0.2 0.24 0.43 0.24 0.71 0 0.43-0.13 0.75-0.39 0.98-0.25 0.22-0.62 0.34-1.11 0.34-0.48 0-0.85-0.12-1.11-0.34-0.26-0.23-0.39-0.55-0.39-0.98 0-0.28 0.08-0.51 0.24-0.71 0.16-0.19 0.39-0.32 0.67-0.39m-0.22-0.93c0 0.23 0.07 0.4 0.22 0.53 0.14 0.13 0.34 0.19 0.59 0.19 0.26 0 0.46-0.06 0.6-0.19s0.21-0.3 0.21-0.53-0.07-0.4-0.21-0.53-0.34-0.19-0.6-0.19c-0.25 0-0.45 0.06-0.59 0.19-0.15 0.13-0.22 0.3-0.22 0.53"/>
    <path id="text2475" d="m408.28 590.13v-0.54c0.14 0.07 0.29 0.12 0.45 0.16 0.15 0.04 0.3 0.05 0.45 0.05 0.39 0 0.68-0.13 0.89-0.39s0.32-0.66 0.35-1.2c-0.11 0.17-0.25 0.3-0.43 0.39-0.17 0.09-0.36 0.13-0.57 0.13-0.44 0-0.79-0.13-1.04-0.39-0.26-0.27-0.39-0.63-0.39-1.09 0-0.45 0.14-0.81 0.4-1.08 0.27-0.27 0.62-0.41 1.06-0.41 0.51 0 0.9 0.2 1.16 0.59 0.27 0.38 0.4 0.95 0.4 1.68 0 0.69-0.16 1.25-0.49 1.66s-0.77 0.61-1.32 0.61c-0.15 0-0.3-0.01-0.45-0.04s-0.31-0.07-0.47-0.13m1.17-1.86c0.27 0 0.48-0.09 0.63-0.27 0.16-0.18 0.24-0.43 0.24-0.75 0-0.31-0.08-0.56-0.24-0.74-0.15-0.19-0.36-0.28-0.63-0.28-0.26 0-0.47 0.09-0.63 0.28-0.15 0.18-0.23 0.43-0.23 0.74 0 0.32 0.08 0.57 0.23 0.75 0.16 0.18 0.37 0.27 0.63 0.27"/>
    <path id="text2479" d="m369.1 607.43c-0.31 0-0.54 0.15-0.69 0.45s-0.23 0.75-0.23 1.35 0.08 1.05 0.23 1.35 0.38 0.45 0.69 0.45c0.3 0 0.53-0.15 0.69-0.45 0.15-0.3 0.23-0.75 0.23-1.35s-0.08-1.05-0.23-1.35c-0.16-0.3-0.39-0.45-0.69-0.45m0-0.47c0.49 0 0.86 0.19 1.12 0.58s0.39 0.95 0.39 1.69c0 0.73-0.13 1.3-0.39 1.69-0.26 0.38-0.63 0.58-1.12 0.58s-0.87-0.2-1.13-0.58c-0.26-0.39-0.38-0.96-0.38-1.69 0-0.74 0.12-1.3 0.38-1.69s0.64-0.58 1.13-0.58"/>
    <path id="text2483" d="m326.11 608.26l-1.05 0.57 1.05 0.57-0.17 0.29-0.98-0.6v1.11h-0.34v-1.11l-0.98 0.6-0.17-0.29 1.05-0.57-1.05-0.57 0.17-0.29 0.98 0.6v-1.11h0.34v1.11l0.98-0.6 0.17 0.29m2.94-0.11v1.64h1.63v0.49h-1.63v1.64h-0.49v-1.64h-1.63v-0.49h1.63v-1.64h0.49"/>
    <path id="text2487" d="m408.66 608.77h-0.85l-0.24 0.98h0.85l0.24-0.98m-0.44-1.67l-0.3 1.22h0.86l0.3-1.22h0.47l-0.3 1.22h0.91v0.45h-1.02l-0.24 0.98h0.93v0.45h-1.05l-0.3 1.21h-0.47l0.3-1.21h-0.86l-0.3 1.21h-0.47l0.3-1.21h-0.92v-0.45h1.03l0.25-0.98h-0.95v-0.45h1.06l0.3-1.22h0.47"/>
    <path id="path2491" stroke-linejoin="round" d="m409.28 362.16c-2.47-0.67-2.78-1.5-2.78-7.49 0-7.45-0.13-7.33 7.92-7.33 7.86 0 7.74-0.11 7.74 7.41 0 7.26-0.15 7.42-6.98 7.57-2.69 0.06-5.34-0.01-5.9-0.16z" stroke-opacity=".9702" stroke="#000" stroke-width="1.0102" fill="#483e37"/>
    <path id="path2499" fill="url(#linearGradient2515)" d="m305.8 628.16c-1.36-0.53-3.01-1.47-3.67-2.08l-1.19-1.13 0.13-132.12 0.13-132.13 1.17-1.5c3.67-4.69 12.24-7.36 28.62-8.9 7.53-0.71 43.44-0.89 53.67-0.27l6.69 0.41v-11.68h16.14c15.11 0 16.33 0.06 18.95 1.05 1.55 0.57 3.49 1.62 4.31 2.31l1.51 1.27v281.29l-1.39 1.23c-0.76 0.67-2.59 1.68-4.06 2.24-2.62 1.01-3.65 1.02-60.61 1-55.79-0.02-58.03-0.06-60.4-0.99zm31.8-11.05c6.87-3.12 6.87-12.88 0-16.2-2.15-1.04-2.87-1.1-11.06-0.94-8.36 0.16-8.84 0.22-10.58 1.42-5.65 3.87-5.23 12.64 0.75 15.6 1.94 0.96 3.01 1.07 10.5 1.06 7.02-0.01 8.66-0.16 10.39-0.94zm82.82-0.83c3.56-2.88 4.64-6.75 2.98-10.72-2.01-4.81-4.2-5.66-14.62-5.66-8.76 0-10.86 0.49-13.23 3.07-3.05 3.33-2.94 8.84 0.25 12.25 2.47 2.64 3.55 2.86 13.56 2.72l9.17-0.13 1.89-1.53zm-40.93-0.14c5.12-2.93 6.2-9.26 2.37-13.82-2.2-2.61-3.69-2.94-13.24-2.94-7.59 0-8.86 0.11-10.58 0.99-7.18 3.67-5.81 14.75 2.06 16.7 0.94 0.24 5.23 0.38 9.53 0.33 7.15-0.09 8.01-0.2 9.86-1.26zm-41.8-19.35c6.78-3.28 6.72-13.06-0.09-16.15-1.73-0.79-3.37-0.94-10.36-0.95-9.91-0.01-11.77 0.57-13.99 4.35-2.3 3.92-1.65 8.25 1.72 11.45 2.13 2.03 3.48 2.28 12.46 2.33 7.22 0.04 8.27-0.07 10.26-1.03zm81.23 0.11c6.82-3.1 6.95-12.67 0.21-16.29-1.51-0.8-2.94-0.93-10.19-0.93-4.73 0-9.06 0.23-9.85 0.53-5.7 2.16-7.63 10.1-3.54 14.56 2.37 2.58 4.47 3.07 13.23 3.07 6.78 0 8.41-0.15 10.14-0.94zm-39.37-1.02c0.87-0.53 2.23-1.82 3.03-2.86 1.24-1.62 1.45-2.36 1.45-5.05 0-2.77-0.19-3.38-1.57-5.09-2.77-3.42-4.04-3.87-11.78-4.12-8.34-0.26-12.01 0.37-14.43 2.5-3.58 3.14-3.87 9.44-0.6 13 2.08 2.27 3.54 2.55 13.23 2.57 8.08 0.01 9.26-0.09 10.67-0.95zm-41.87-18.49c2.51-1.05 3.64-2.13 4.74-4.53 1.81-3.94 0.64-8.49-2.87-11.17l-1.91-1.46h-9.67c-9.48 0-9.71 0.03-11.51 1.26-4.45 3.05-5.29 9.69-1.72 13.58 2.35 2.57 4.48 3.07 13.11 3.08 6.05 0.01 8.42-0.17 9.83-0.76zm81.76-0.19c5.4-2.46 6.97-9.59 3.08-14.02-2.53-2.89-3.82-3.2-13.24-3.2s-10.71 0.31-13.24 3.2c-3.89 4.43-2.32 11.56 3.08 14.02 1.75 0.79 3.35 0.94 10.16 0.94 6.82 0 8.41-0.15 10.16-0.94zm-39.26-1.08c6-3.38 6.07-12.03 0.14-15.52-2.32-1.36-2.49-1.38-10.94-1.38-9.71 0-11.3 0.43-13.79 3.7-1.19 1.55-1.36 2.25-1.36 5.39s0.18 3.85 1.35 5.39c2.38 3.12 3.6 3.43 13.73 3.44 8.18 0.01 9.2-0.08 10.87-1.02zm-44.04-19.2c1.74-0.66 4.04-2.79 5-4.62 0.39-0.75 0.71-2.52 0.71-3.94 0-2.9-0.76-4.67-2.86-6.66-2.26-2.14-3.73-2.43-12.47-2.43-7.49 0-8.38 0.1-10.44 1.14-1.24 0.62-2.76 1.9-3.38 2.83-3.08 4.64-1.55 10.59 3.38 13.08 2.06 1.04 2.95 1.13 10.44 1.13 4.56 0 8.83-0.23 9.62-0.53zm83.33-1.06c5.18-3.43 5.18-11.56 0-14.99-1.97-1.31-2.27-1.35-10.81-1.51-8.17-0.14-8.93-0.08-11.05 0.95-6.69 3.24-6.75 12.74-0.11 16.08 2.04 1.02 2.79 1.09 11.06 0.95 8.66-0.13 8.93-0.17 10.91-1.48zm-43.34 0.62c2.43-0.47 4.27-1.65 5.85-3.77 0.82-1.1 1.04-2.14 1.04-5.05 0-3.21-0.17-3.89-1.36-5.45-2.37-3.11-3.72-3.44-13.87-3.44-10.13 0-10.87 0.21-13.62 3.82-1.22 1.6-1.44 2.36-1.45 5-0.01 2.49 0.24 3.48 1.23 4.93 1.36 1.99 3.41 3.38 5.8 3.95 2.16 0.52 13.71 0.53 16.38 0.01zm50.57-25.71c1.94-1.94 2.13-3.67 1.94-17.88l-0.17-11.99-1.65-1.65-1.65-1.65-13.5-0.16c-15.79-0.19-17.42-0.03-19.39 1.93l-1.43 1.44v28.28l1.55 1.56 1.55 1.55h31.32l1.43-1.43zm-82.68-0.13c2.72-1.24 2.88-2.23 2.88-17.01 0-12.97-0.04-13.68-1.03-14.94-1.74-2.21-3.64-2.43-18.92-2.26-14.93 0.17-15.37 0.24-16.97 2.64-0.54 0.82-0.74 3.93-0.87 13.68-0.17 13.7 0.08 15.69 2.27 17.4 1.26 1 1.95 1.04 16.38 1.04 9.75 0 15.48-0.19 16.26-0.55zm39.08-3.1c0.88-0.49 2.13-1.62 2.78-2.53 1.15-1.61 1.18-1.92 1.18-13.1 0-13.05-0.07-13.28-4.31-15.44-2.11-1.09-2.78-1.14-13.95-1.14-7.04 0-12.3 0.21-13.15 0.54-2.11 0.79-4.65 3.47-5.21 5.5-0.28 0.98-0.5 5.88-0.49 10.88 0.01 7.74 0.14 9.39 0.93 11.11 2.23 4.86 3.93 5.32 18.75 5.17 10.16-0.1 12.1-0.24 13.47-0.99zm30.38-37.34c3.09-0.76 7.2-3.48 8.85-5.86 2.98-4.32 2.86-1.99 2.86-54.21 0-46.64-0.03-47.97-1.01-50.59-1.26-3.38-4.43-6.67-8.08-8.4l-2.78-1.32-45.45-0.16c-47.17-0.16-49.39-0.08-53.28 1.93-2.52 1.31-5.32 4.37-6.68 7.32l-1.16 2.53-0.14 48.06-0.13 48.06 1.09 2.91c1.82 4.86 6 8.61 10.92 9.76 2.99 0.71 92.11 0.68 94.99-0.03zm10.14-125.46c2.01-1.69 2.58-3.91 2.58-10.07 0-6.17-0.57-8.39-2.58-10.07-1.5-1.27-1.72-1.3-9.12-1.3-11.39 0-11.78 0.38-11.78 11.37 0 10.98 0.35 11.33 11.7 11.35 7.5 0.01 7.7-0.02 9.2-1.28z"/>
    <path id="path3297" fill="#918a6f" d="m297.87 621.27c-0.6-1.07-1.35-3.43-1.66-5.23-0.4-2.36-0.51-40.24-0.41-134.11l0.14-130.82 1.69-3.42c1.2-2.46 2.39-3.98 4.2-5.41 4.6-3.64 2.99-3.53 47.74-3.53h40.06v10.19l-6.18-0.39c-9.58-0.6-45.25-0.44-52.4 0.25-18.64 1.79-28.35 5.28-31 11.16-0.42 0.93-0.64 35.86-0.82 132.27l-0.26 131-1.1-1.96z"/>
    <path id="path3299" fill="#918a6f" d="m434.16 483.96v-138.39l1.35 2.78 1.35 2.78v265.67l-1.35 2.78-1.35 2.78v-138.4z"/>
  </g>
  <metadata>
    <rdf:RDF>
      <cc:Work>
        <dc:format>image/svg+xml</dc:format>
        <dc:type rdf:resource="http://purl.org/dc/dcmitype/StillImage"/>
        <cc:license rdf:resource="http://creativecommons.org/licenses/publicdomain/"/>
        <dc:publisher>
          <cc:Agent rdf:about="http://openclipart.org/">
            <dc:title>Openclipart</dc:title>
          </cc:Agent>
        </dc:publisher>
        <dc:title>Mobile Phone</dc:title>
        <dc:date>2008-07-01T15:43:01</dc:date>
        <dc:description>Sign of mobility</dc:description>
        <dc:source>http://openclipart.org/detail/17530/mobile-phone-by-thilakarathna</dc:source>
        <dc:creator>
          <cc:Agent>
            <dc:title>thilakarathna</dc:title>
          </cc:Agent>
        </dc:creator>
        <dc:subject>
          <rdf:Bag>
            <rdf:li>clip art</rdf:li>
            <rdf:li>clipart</rdf:li>
            <rdf:li>communication</rdf:li>
            <rdf:li>devices</rdf:li>
            <rdf:li>image</rdf:li>
            <rdf:li>media</rdf:li>
            <rdf:li>mobile</rdf:li>
            <rdf:li>mobilephone</rdf:li>
            <rdf:li>people</rdf:li>
            <rdf:li>png</rdf:li>
            <rdf:li>public domain</rdf:li>
            <rdf:li>svg</rdf:li>
          </rdf:Bag>
        </dc:subject>
      </cc:Work>
      <cc:License rdf:about="http://creativecommons.org/licenses/publicdomain/">
        <cc:permits rdf:resource="http://creativecommons.org/ns#Reproduction"/>
        <cc:permits rdf:resource="http://creativecommons.org/ns#Distribution"/>
        <cc:permits rdf:resource="http://creativecommons.org/ns#DerivativeWorks"/>
      </cc:License>
    </rdf:RDF>
  </metadata>
</svg>
