<?xml version="1.0" encoding="UTF-8"?>
<svg width="1200pt" height="1200pt" version="1.1" viewBox="0 0 1200 1200" xmlns="http://www.w3.org/2000/svg">
 <path d="m600 75c-289.49 0-525 235.51-525 525s235.51 525 525 525 525-235.51 525-525-235.51-525-525-525zm-270.39 883.86c49.203-103.61 153.38-171.36 270.39-171.36 117 0 221.16 67.742 270.39 171.36-75.379 56.941-168.85 91.145-270.39 91.145-101.54 0-195-34.203-270.39-91.145zm598.79-52.188c-64.992-118.28-189.72-194.17-328.4-194.17-138.69 0-263.4 75.887-328.41 194.16-75.176-80.453-121.59-188.11-121.59-306.66 0-248.12 201.88-450 450-450 248.14 0 450 201.88 450 450 0 118.55-46.418 226.21-121.6 306.67zm-328.4-682.79c-124.07 0-225 100.93-225 225 0 124.07 100.93 225.02 225 225.02s225-100.95 225-225.02c0-124.07-100.93-225-225-225zm0 375c-82.707 0-150-67.293-150-150 0-82.707 67.293-150 150-150 82.727 0 150 67.293 150 150 0 82.707-67.273 150-150 150z"/>
</svg>
